{"title":"Ferris Bueller's Day Off (1986) (BrRip.480p.x264) DM","uid":8866575,"size":402778347,"categoryP":"video","categoryS":"movies","magnet":"?xt=urn:btih:5af3d6284b6dd844de22e70effa777d484ab4ea2&amp;dn=Ferris+Bueller%27s+Day+Off+%281986%29+%28BrRip.480p.x264%29+DM&amp;tr=udp%3A%2F%2Ftracker.openbittorrent.com%3A80&amp;tr=udp%3A%2F%2Fopen.demonii.com%3A1337&amp;tr=udp%3A%2F%2Ftracker.coppersurfer.tk%3A6969&amp;tr=udp%3A%2F%2Fexodus.desync.com%3A6969","seeders":0,"leechers":1,"uploader":"DMeTaLx","files":3,"time":1377928378,"description":"Information\nGenre: Comedy / Drama\nRelease Date: 20 February 1987\nLanguage: English\nSubtitles: English (SRT) http://subscene.com/subtitles/ferris-buellers-day-off\nRuntime: 1 hour 43 minutes\nRipped By: BroDoX DM\n\nWritten &amp; Directed by:\nJohn Hughes\n\nCast:\nMatthew Broderick ...... Ferris Bueller\nAlan Ruck ...... Cameron Frye\nMia Sara ...... Sloane Peterson\nJeffrey Jones ...... Ed Rooney\n\nSynopsis\nFerris is a street-wise kid who knows all the tricks. Today he decides to take the day off school. When Ferris takes the day off, so must his best friends, Cameron and Sloane. Cameron is reluctantly persuaded to borrow his father's Ferrari, and together they hatch a plan to get Sloane out of class. Suspicious dean of students Ed Rooney knows all about Ferris, but can never catch him. Ferris' sister Jeanie is also frustrated that Ferris always gets away with his tricks and she doesn't. Furthermore, Ferris is an 'angel' in his parents eyes. It's Ferris' day off, he's out to enjoy himself, and he does! Written by Rob Hartill\n\nMedia Info\n\nGeneral\nFormat: MPEG-4\nFormat profile: Base Media / Version 2\nCodec ID: mp42\nFile size: 383 MiB\nDuration: 1h 43mn\nOverall bit rate mode: Variable\nOverall bit rate: 519 Kbps\n\nVideo\nFormat: AVC\nFormat/Info: Advanced Video Codec\nFormat profile: &lt;a class=&quot;__cf_email__&quot; href=&quot;/cdn-cgi/l/email-protection&quot; data-cfemail=&quot;4b03222c230b0778657a&quot;&gt;[email&amp;#160;protected]&lt;/a&gt;&lt;script cf-hash='f9e31' type=&quot;text/javascript&quot;&gt;\n/* &lt;![CDATA[ */!function(){try{var t=&quot;currentScript&quot;in document?document.currentScript:function(){for(var t=document.getElementsByTagName(&quot;script&quot;),e=t.length;e--;)if(t[e].getAttribute(&quot;cf-hash&quot;))return t[e]}();if(t&amp;&amp;t.previousSibling){var e,r,n,i,c=t.previousSibling,a=c.getAttribute(&quot;data-cfemail&quot;);if(a){for(e=&quot;&quot;,r=parseInt(a.substr(0,2),16),n=2;a.length-n;n+=2)i=parseInt(a.substr(n,2),16)^r,e+=String.fromCharCode(i);e=document.createTextNode(e),c.parentNode.replaceChild(e,c)}}}catch(u){}}();/* ]]&gt; */&lt;/script&gt;\nFormat settings, CABAC: Yes\nFormat settings, ReFrames: 8 frames\nCodec ID: avc1\nCodec ID/Info: Advanced Video Coding\nDuration: 1h 43mn\nBit rate mode: Variable\nBit rate: 450 Kbps\nWidth: 850 pixels\nHeight: 368 pixels\nDisplay aspect ratio: 2.35:1\nFrame rate mode: Variable\nFrame rate: 23.976 fps\nColor space: YUV\nChroma subsampling: 4:2:0\nBit depth: 8 bits\nScan type: Progressive\nBits/(Pixel*Frame): 0.060\nStream size: 332 MiB (87%)\nWriting library: x264 core 130 r2273 b3065e6\n\nAudio\nFormat: AAC\nFormat/Info: Advanced Audio Codec\nFormat profile: LC\nCodec ID: 40\nDuration: 1h 43mn\nBit rate mode: Variable\nBit rate: 64.0 Kbps\nMaximum bit rate: 112 Kbps\nChannel count: 2 channels\nChannel positions: Front: L R\nSampling rate: 48.0 KHz\nCompression mode: Lossy\nDelay relative to video: 83ms\nStream size: 47.2 MiB (12%)","torrent":{"xt":"urn:btih:5af3d6284b6dd844de22e70effa777d484ab4ea2","amp;dn":"Ferris+Bueller%27s+Day+Off+%281986%29+%28BrRip.480p.x264%29+DM","amp;tr":["udp%3A%2F%2Ftracker.openbittorrent.com%3A80","udp%3A%2F%2Fopen.demonii.com%3A1337","udp%3A%2F%2Ftracker.coppersurfer.tk%3A6969","udp%3A%2F%2Fexodus.desync.com%3A6969"],"infoHash":"5af3d6284b6dd844de22e70effa777d484ab4ea2","infoHashBuffer":{"type":"Buffer","data":[90,243,214,40,75,109,216,68,222,34,231,14,255,167,119,212,132,171,78,162]},"announce":[],"urlList":[]}}